<?xml version="1.0" encoding="utf-8"?>
<!-- Generator: Adobe Illustrator 26.0.1, SVG Export Plug-In . SVG Version: 6.00 Build 0)  -->
<svg version="1.1" id="svg4068" xmlns:svg="http://www.w3.org/2000/svg"
	 xmlns="http://www.w3.org/2000/svg" xmlns:xlink="http://www.w3.org/1999/xlink" x="0px" y="0px" viewBox="0 0 682.7 682.7"
	 style="enable-background:new 0 0 682.7 682.7;" xml:space="preserve">
<style type="text/css">
	.st0{clip-path:url(#SVGID_00000045579817981517219520000016276339814281253253_);}
	.st1{fill:none;stroke:#FFFFFF;stroke-width:26.6667;stroke-linecap:round;stroke-linejoin:round;stroke-miterlimit:13.3333;}
</style>
<g id="g4074" transform="matrix(1.3333333,0,0,-1.3333333,0,682.66667)">
	<g id="g4076">
		<g>
			<defs>
				<rect id="SVGID_1_" x="-85.3" y="-85.3" width="682.7" height="682.7"/>
			</defs>
			<clipPath id="SVGID_00000060021974914779391450000009610518657105671076_">
				<use xlink:href="#SVGID_1_"  style="overflow:visible;"/>
			</clipPath>
			<g id="g4078" style="clip-path:url(#SVGID_00000060021974914779391450000009610518657105671076_);">
				<g id="g4084" transform="translate(48.1578,22.1854)">
					<path id="path4086" class="st1" d="M0,0l131.1,131.1"/>
				</g>
				<g id="g4088" transform="translate(463.8422,22.1854)">
					<path id="path4090" class="st1" d="M0,0l-132.6,132.6"/>
				</g>
				<g id="g4092" transform="translate(300.9998,10.0275)">
					<path id="path4094" class="st1" d="M0,0h133.5C156.4,0,175,18.6,175,41.5v231.9c0,11-4.4,21.6-12.1,29.3l-35.9,35.9"/>
				</g>
				<g id="g4096" transform="translate(83.7613,348.2663)">
					<path id="path4098" class="st1" d="M0,0l-35.6-35.5c-7.8-7.8-12.2-18.3-12.2-29.4v-231.9c0-22.9,18.6-41.5,41.5-41.5h133.5"/>
				</g>
				<g id="g4100" transform="translate(328.6562,448.0259)">
					<path id="path4102" class="st1" d="M0,0l-53.9,53.9c-14.5,0-22.7,0-37.3,0l-54-53.9"/>
				</g>
				<g id="g4104" transform="translate(471.8489,296.4425)">
					<path id="path4106" class="st1" d="M0,0l-186.4-186.5c-16.2-16.2-42.5-16.2-58.7,0L-431-0.7"/>
				</g>
				<g id="g4108" transform="translate(268.1039,259.5586)">
					<path id="path4110" class="st1" d="M0,0h-15.9c-23.3,0-42.2,18.9-42.2,42.2v0c0,23.3,18.9,42.2,42.2,42.2l0,0
						c21.9,0,39.7-17.8,39.7-39.7V21.6C23.7,8.2,34.6-2.7,48-2.7l0,0c13.4,0,24.3,10.9,24.3,24.3v20.5c0,46.6-37.8,84.4-84.4,84.4
						l0,0c-46.6,0-84.4-37.8-84.4-84.4l0,0c0-47.3,38.4-85.7,85.7-85.7H50"/>
				</g>
				<g id="g4112" transform="translate(84,252.7522)">
					<path id="path4114" class="st1" d="M0,0v165.3c0,16.6,13.4,30,30,30h284c16.6,0,30-13.4,30-30V3.3"/>
				</g>
				<g id="g4116" transform="translate(256,10.0275)">
					<path id="path4118" class="st1" d="M0,0L0,0"/>
				</g>
			</g>
		</g>
	</g>
</g>
</svg>
