<?xml version="1.0" encoding="utf-8"?>
<!-- Generator: Adobe Illustrator 26.0.1, SVG Export Plug-In . SVG Version: 6.00 Build 0)  -->
<svg version="1.1" id="Layer_1" xmlns="http://www.w3.org/2000/svg" xmlns:xlink="http://www.w3.org/1999/xlink" x="0px" y="0px"
	 viewBox="0 0 512 512" style="enable-background:new 0 0 512 512;" xml:space="preserve">
<style type="text/css">
	.st0{fill:#FFFFFF;}
</style>
<g id="Layer_2_00000054983510746224807610000016530767887667626672_">
	<path class="st0" d="M413.8,469.6H256c-123.5,0-224-95.8-224-213.6S132.5,42.4,256,42.4S480,138.2,480,256
		c0,50.9-18.9,100.1-53.1,137.9l12.8,12.8c14.4,14.4,14.4,37.7,0,52C432.8,465.7,423.5,469.5,413.8,469.6L413.8,469.6z M256,74.4
		C150.1,74.4,64,155.9,64,256s86.1,181.6,192,181.6h157.8c2.7,0,4.8-2.1,4.8-4.8c0-1.3-0.5-2.5-1.4-3.4l-24-24
		c-6.2-6.2-6.2-16.4,0-22.6c0.1-0.1,0.1-0.1,0.2-0.2c34.7-33,54.4-78.7,54.6-126.6C448,155.9,361.9,74.4,256,74.4L256,74.4z"/>
	<path class="st0" d="M280,352h-48c-8.8,0-16-7.2-16-16s7.2-16,16-16h48c8.8,0,16,7.2,16,16S288.8,352,280,352z"/>
	<path class="st0" d="M256,352c-8.8,0-16-7.2-16-16v-98.1c-7.7-4.4-10.3-14.2-5.9-21.9c2.9-4.9,8.1-8,13.9-8h8c8.8,0,16,7.2,16,16
		v112C272,344.8,264.8,352,256,352z"/>
	<circle class="st0" cx="256" cy="160" r="24"/>
</g>
</svg>
