<?xml version="1.0" encoding="utf-8"?>
<!-- Generator: Adobe Illustrator 26.0.1, SVG Export Plug-In . SVG Version: 6.00 Build 0)  -->
<svg version="1.1" id="Layer_1" xmlns="http://www.w3.org/2000/svg" xmlns:xlink="http://www.w3.org/1999/xlink" x="0px" y="0px"
	 viewBox="0 0 512 512" style="enable-background:new 0 0 512 512;" xml:space="preserve">
<style type="text/css">
	.st0{fill:#FFFFFF;}
</style>
<g id="cart_shop_buy_retail">
	<path class="st0" d="M384,368c-26.5,0-48,21.5-48,48s21.5,48,48,48s48-21.5,48-48C432,389.5,410.5,368,384,368z M384,432
		c-8.8,0-16-7.2-16-16s7.2-16,16-16s16,7.2,16,16C400,424.8,392.8,432,384,432z"/>
	<path class="st0" d="M288,368H160c-8.8,0-16-7.2-16-16s7.2-16,16-16h256c7.8,0,14.5-5.7,15.8-13.4l32-192c1.5-8.7-4.4-17-13.1-18.4
		c-0.9-0.1-1.8-0.2-2.6-0.2H192c-8.8,0-16,7.2-16,16s7.2,16,16,16h237.1l-26.7,160H203.1L111,58.4c-2.3-6.2-8.3-10.4-15-10.4H64
		c-8.8,0-16,7.2-16,16s7.2,16,16,16h20.9l84,224H160c-26.4-0.2-48,21.1-48.2,47.5c-0.2,21.9,14.5,41.1,35.7,46.6
		c-10.2,24.5,1.4,52.7,25.9,62.9s52.7-1.4,62.9-25.9c4.7-11.2,4.9-23.7,0.7-35.1H288c8.8,0,16-7.2,16-16S296.8,368,288,368z
		 M208,416c0,8.8-7.2,16-16,16s-16-7.2-16-16s7.2-16,16-16C200.8,400,208,407.2,208,416z"/>
</g>
</svg>
